<mxfile host="65bd71144e">
    <diagram id="EPzmnkyFrrzmDoTjYzm7" name="Page-1">
        <mxGraphModel dx="1413" dy="951" grid="1" gridSize="10" guides="1" tooltips="1" connect="1" arrows="1" fold="1" page="1" pageScale="1" pageWidth="950" pageHeight="790" math="0" shadow="0">
            <root>
                <mxCell id="0"/>
                <mxCell id="1" parent="0"/>
                <mxCell id="151" value="" style="rounded=0;whiteSpace=wrap;html=1;labelBackgroundColor=none;fontFamily=Helvetica;fontColor=#000000;strokeColor=#000000;strokeWidth=1;" vertex="1" parent="1">
                    <mxGeometry y="20" width="340" height="680" as="geometry"/>
                </mxCell>
                <mxCell id="112" value="" style="rounded=0;whiteSpace=wrap;html=1;fontFamily=Source Code Pro;strokeWidth=1;align=left;verticalAlign=top;spacingTop=0;" parent="1" vertex="1">
                    <mxGeometry x="120.5" y="280" width="180" height="80" as="geometry"/>
                </mxCell>
                <mxCell id="90" value="" style="rounded=0;whiteSpace=wrap;html=1;labelBackgroundColor=none;fontFamily=Helvetica;fontColor=#000000;strokeColor=#000000;strokeWidth=1;" parent="1" vertex="1">
                    <mxGeometry x="680" y="20" width="270" height="500" as="geometry"/>
                </mxCell>
                <mxCell id="84" value="" style="rounded=0;whiteSpace=wrap;html=1;labelBackgroundColor=none;fontFamily=Source Code Pro;fontColor=#000000;strokeColor=#000000;strokeWidth=1;" parent="1" vertex="1">
                    <mxGeometry x="730" y="340" width="180" height="140" as="geometry"/>
                </mxCell>
                <mxCell id="71" value="" style="endArrow=classic;html=1;fontFamily=Source Code Pro;fontColor=#000000;exitX=0.5;exitY=1;exitDx=0;exitDy=0;entryX=0.5;entryY=0;entryDx=0;entryDy=0;" parent="1" source="69" target="70" edge="1">
                    <mxGeometry width="50" height="50" relative="1" as="geometry">
                        <mxPoint x="820" y="150" as="sourcePoint"/>
                        <mxPoint x="780" y="120" as="targetPoint"/>
                    </mxGeometry>
                </mxCell>
                <mxCell id="70" value="" style="rounded=0;whiteSpace=wrap;html=1;fontFamily=Source Code Pro;strokeWidth=1;align=left;verticalAlign=top;spacingTop=0;" parent="1" vertex="1">
                    <mxGeometry x="730" y="200" width="180" height="80" as="geometry"/>
                </mxCell>
                <mxCell id="69" value="" style="rounded=0;whiteSpace=wrap;html=1;fontFamily=Source Code Pro;strokeWidth=1;align=left;verticalAlign=top;spacingTop=0;" parent="1" vertex="1">
                    <mxGeometry x="730" y="60" width="180" height="80" as="geometry"/>
                </mxCell>
                <mxCell id="3" value="Server" style="rounded=0;whiteSpace=wrap;html=1;fontStyle=1" parent="1" vertex="1">
                    <mxGeometry x="680" y="20" width="50" height="20" as="geometry"/>
                </mxCell>
                <mxCell id="4" value="Client Session" style="rounded=0;whiteSpace=wrap;html=1;fontStyle=1" parent="1" vertex="1">
                    <mxGeometry y="20" width="100" height="20" as="geometry"/>
                </mxCell>
                <mxCell id="25" value="" style="endArrow=classic;html=1;fontFamily=Source Code Pro;dashed=1;exitX=1;exitY=0.5;exitDx=0;exitDy=0;edgeStyle=orthogonalEdgeStyle;" parent="1" source="26" edge="1">
                    <mxGeometry width="50" height="50" relative="1" as="geometry">
                        <mxPoint x="420" y="100" as="sourcePoint"/>
                        <mxPoint x="680" y="100" as="targetPoint"/>
                        <Array as="points">
                            <mxPoint x="650" y="100"/>
                            <mxPoint x="650" y="100"/>
                        </Array>
                    </mxGeometry>
                </mxCell>
                <mxCell id="26" value="" style="rounded=0;whiteSpace=wrap;html=1;fontFamily=Source Code Pro;strokeWidth=1;align=left;verticalAlign=top;spacingTop=0;" parent="1" vertex="1">
                    <mxGeometry x="420" y="50" width="180" height="100" as="geometry"/>
                </mxCell>
                <mxCell id="27" value="&lt;span style=&quot;color: rgb(0 , 0 , 0) ; font-family: &amp;#34;source code pro&amp;#34; ; font-size: 12px ; font-style: normal ; font-weight: 400 ; letter-spacing: normal ; text-align: left ; text-indent: 0px ; text-transform: none ; word-spacing: 0px ; display: inline ; float: none&quot;&gt;POST /message/72/private&lt;/span&gt;" style="text;html=1;align=center;verticalAlign=middle;whiteSpace=wrap;rounded=0;fontFamily=Source Code Pro;labelBackgroundColor=none;strokeColor=default;" parent="1" vertex="1">
                    <mxGeometry x="420" y="50" width="180" height="20" as="geometry"/>
                </mxCell>
                <mxCell id="29" value="" style="group" parent="1" vertex="1" connectable="0">
                    <mxGeometry x="80" y="60" width="120" height="80" as="geometry"/>
                </mxCell>
                <mxCell id="5" value="" style="rounded=0;whiteSpace=wrap;html=1;" parent="29" vertex="1">
                    <mxGeometry width="120" height="80" as="geometry"/>
                </mxCell>
                <mxCell id="6" value="" style="rounded=1;whiteSpace=wrap;html=1;fillColor=#f8cecc;strokeColor=#b85450;" parent="29" vertex="1">
                    <mxGeometry x="30" y="10" width="40" height="20" as="geometry"/>
                </mxCell>
                <mxCell id="7" value="" style="rounded=1;whiteSpace=wrap;html=1;fillColor=#d5e8d4;strokeColor=#82b366;" parent="29" vertex="1">
                    <mxGeometry x="75" y="40" width="40" height="20" as="geometry"/>
                </mxCell>
                <mxCell id="9" style="edgeStyle=orthogonalEdgeStyle;html=1;entryX=0.5;entryY=0;entryDx=0;entryDy=0;" parent="29" source="6" target="7" edge="1">
                    <mxGeometry relative="1" as="geometry">
                        <mxPoint x="45" y="20" as="targetPoint"/>
                    </mxGeometry>
                </mxCell>
                <mxCell id="8" value="" style="rounded=1;whiteSpace=wrap;html=1;fillColor=#dae8fc;strokeColor=#6c8ebf;" parent="29" vertex="1">
                    <mxGeometry x="5" y="50" width="40" height="20" as="geometry"/>
                </mxCell>
                <mxCell id="10" style="edgeStyle=orthogonalEdgeStyle;html=1;" parent="29" source="7" target="8" edge="1">
                    <mxGeometry relative="1" as="geometry"/>
                </mxCell>
                <mxCell id="28" value="72" style="rounded=0;whiteSpace=wrap;html=1;labelBackgroundColor=none;fontFamily=Source Code Pro;strokeWidth=1;" parent="29" vertex="1">
                    <mxGeometry width="20" height="20" as="geometry"/>
                </mxCell>
                <mxCell id="40" value="Patch" style="rounded=0;whiteSpace=wrap;html=1;labelBackgroundColor=none;fontFamily=Helvetica;strokeWidth=1;" parent="1" vertex="1">
                    <mxGeometry x="430" y="80" width="80" height="60" as="geometry"/>
                </mxCell>
                <mxCell id="41" value="Reverse Patch&lt;br&gt;(Client)" style="rounded=0;whiteSpace=wrap;html=1;labelBackgroundColor=none;fontFamily=Helvetica;strokeWidth=1;strokeColor=#666666;fontColor=#666666;" parent="1" vertex="1">
                    <mxGeometry x="510" y="80" width="80" height="60" as="geometry"/>
                </mxCell>
                <mxCell id="62" value="Patch" style="rounded=0;whiteSpace=wrap;html=1;labelBackgroundColor=none;fontFamily=Helvetica;strokeWidth=1;" parent="1" vertex="1">
                    <mxGeometry x="740" y="70" width="80" height="60" as="geometry"/>
                </mxCell>
                <mxCell id="63" value="Reverse Patch&lt;br&gt;(Client)" style="rounded=0;whiteSpace=wrap;html=1;labelBackgroundColor=none;fontFamily=Helvetica;strokeWidth=1;strokeColor=#666666;fontColor=#666666;" parent="1" vertex="1">
                    <mxGeometry x="820" y="70" width="80" height="60" as="geometry"/>
                </mxCell>
                <mxCell id="66" value="Patch" style="rounded=0;whiteSpace=wrap;html=1;labelBackgroundColor=none;fontFamily=Helvetica;strokeWidth=1;" parent="1" vertex="1">
                    <mxGeometry x="740" y="210" width="80" height="60" as="geometry"/>
                </mxCell>
                <mxCell id="67" value="Reverse Patch&lt;br&gt;(Server)" style="rounded=0;whiteSpace=wrap;html=1;labelBackgroundColor=none;fontFamily=Helvetica;strokeWidth=1;strokeColor=#000000;fontColor=#000000;" parent="1" vertex="1">
                    <mxGeometry x="820" y="210" width="80" height="60" as="geometry"/>
                </mxCell>
                <mxCell id="74" value="" style="endArrow=classic;html=1;fontFamily=Source Code Pro;fontColor=#000000;exitX=0.5;exitY=1;exitDx=0;exitDy=0;" parent="1" source="70" target="31" edge="1">
                    <mxGeometry width="50" height="50" relative="1" as="geometry">
                        <mxPoint x="820" y="289.9999999999999" as="sourcePoint"/>
                        <mxPoint x="820" y="340" as="targetPoint"/>
                    </mxGeometry>
                </mxCell>
                <mxCell id="79" value="" style="rounded=1;whiteSpace=wrap;html=1;fontFamily=Source Code Pro;strokeWidth=3;arcSize=50;" parent="1" vertex="1">
                    <mxGeometry x="770" y="300" width="100" height="20" as="geometry"/>
                </mxCell>
                <mxCell id="80" value="5" style="ellipse;whiteSpace=wrap;html=1;aspect=fixed;fontFamily=Source Code Pro;strokeWidth=3;" parent="1" vertex="1">
                    <mxGeometry x="770" y="300" width="20" height="20" as="geometry"/>
                </mxCell>
                <mxCell id="81" value="Apply Patch" style="text;html=1;strokeColor=none;fillColor=none;align=center;verticalAlign=middle;whiteSpace=wrap;rounded=0;fontFamily=Helvetica;" parent="1" vertex="1">
                    <mxGeometry x="790" y="300" width="80" height="20" as="geometry"/>
                </mxCell>
                <mxCell id="82" value="" style="group" parent="1" vertex="1" connectable="0">
                    <mxGeometry x="730" y="160" width="180" height="20" as="geometry"/>
                </mxCell>
                <mxCell id="59" value="" style="rounded=1;whiteSpace=wrap;html=1;fontFamily=Source Code Pro;strokeWidth=3;arcSize=50;" parent="82" vertex="1">
                    <mxGeometry width="180" height="20" as="geometry"/>
                </mxCell>
                <mxCell id="60" value="4" style="ellipse;whiteSpace=wrap;html=1;aspect=fixed;fontFamily=Source Code Pro;strokeWidth=3;" parent="82" vertex="1">
                    <mxGeometry width="20" height="20" as="geometry"/>
                </mxCell>
                <mxCell id="61" value="Recalculate Reverse Patch" style="text;html=1;strokeColor=none;fillColor=none;align=center;verticalAlign=middle;whiteSpace=wrap;rounded=0;fontFamily=Helvetica;" parent="82" vertex="1">
                    <mxGeometry x="20" width="160" height="20" as="geometry"/>
                </mxCell>
                <mxCell id="85" value="Database" style="rounded=0;whiteSpace=wrap;html=1;labelBackgroundColor=none;fontFamily=Source Code Pro;fontColor=#000000;strokeColor=#000000;strokeWidth=1;fontStyle=1" parent="1" vertex="1">
                    <mxGeometry x="730" y="340" width="80" height="20" as="geometry"/>
                </mxCell>
                <mxCell id="30" value="" style="group" parent="1" vertex="1" connectable="0">
                    <mxGeometry x="760" y="370" width="120" height="80" as="geometry"/>
                </mxCell>
                <mxCell id="31" value="" style="rounded=0;whiteSpace=wrap;html=1;" parent="30" vertex="1">
                    <mxGeometry width="120" height="80" as="geometry"/>
                </mxCell>
                <mxCell id="32" value="" style="rounded=1;whiteSpace=wrap;html=1;fillColor=#f8cecc;strokeColor=#b85450;" parent="30" vertex="1">
                    <mxGeometry x="30" y="10" width="40" height="20" as="geometry"/>
                </mxCell>
                <mxCell id="33" value="" style="rounded=1;whiteSpace=wrap;html=1;fillColor=#d5e8d4;strokeColor=#82b366;" parent="30" vertex="1">
                    <mxGeometry x="75" y="40" width="40" height="20" as="geometry"/>
                </mxCell>
                <mxCell id="34" style="edgeStyle=orthogonalEdgeStyle;html=1;" parent="30" source="32" target="33" edge="1">
                    <mxGeometry relative="1" as="geometry">
                        <mxPoint x="85" y="120" as="targetPoint"/>
                    </mxGeometry>
                </mxCell>
                <mxCell id="35" value="" style="rounded=1;whiteSpace=wrap;html=1;fillColor=#dae8fc;strokeColor=#6c8ebf;" parent="30" vertex="1">
                    <mxGeometry x="5" y="50" width="40" height="20" as="geometry"/>
                </mxCell>
                <mxCell id="36" style="edgeStyle=orthogonalEdgeStyle;html=1;" parent="30" source="33" target="35" edge="1">
                    <mxGeometry relative="1" as="geometry"/>
                </mxCell>
                <mxCell id="37" value="72" style="rounded=0;whiteSpace=wrap;html=1;labelBackgroundColor=none;fontFamily=Source Code Pro;strokeWidth=1;" parent="30" vertex="1">
                    <mxGeometry width="20" height="20" as="geometry"/>
                </mxCell>
                <mxCell id="86" value="" style="endArrow=classic;html=1;fontFamily=Source Code Pro;fontColor=#000000;entryX=1;entryY=0.5;entryDx=0;entryDy=0;" parent="1" target="61" edge="1">
                    <mxGeometry width="50" height="50" relative="1" as="geometry">
                        <mxPoint x="880" y="410" as="sourcePoint"/>
                        <mxPoint x="909" y="172" as="targetPoint"/>
                        <Array as="points">
                            <mxPoint x="930" y="410"/>
                            <mxPoint x="930" y="170"/>
                        </Array>
                    </mxGeometry>
                </mxCell>
                <mxCell id="87" value="" style="rounded=1;whiteSpace=wrap;html=1;fontFamily=Source Code Pro;strokeWidth=3;arcSize=50;" parent="1" vertex="1">
                    <mxGeometry x="390" y="670" width="200" height="20" as="geometry"/>
                </mxCell>
                <mxCell id="88" value="6" style="ellipse;whiteSpace=wrap;html=1;aspect=fixed;fontFamily=Source Code Pro;strokeWidth=3;" parent="1" vertex="1">
                    <mxGeometry x="390" y="670" width="20" height="20" as="geometry"/>
                </mxCell>
                <mxCell id="89" value="Propagate Patch via Websocket" style="text;html=1;strokeColor=none;fillColor=none;align=center;verticalAlign=middle;whiteSpace=wrap;rounded=0;fontFamily=Helvetica;" parent="1" vertex="1">
                    <mxGeometry x="410" y="670" width="180" height="20" as="geometry"/>
                </mxCell>
                <mxCell id="91" value="" style="endArrow=classic;html=1;fontFamily=Helvetica;fontColor=#000000;entryX=0;entryY=0.5;entryDx=0;entryDy=0;" parent="1" target="69" edge="1">
                    <mxGeometry width="50" height="50" relative="1" as="geometry">
                        <mxPoint x="680" y="100" as="sourcePoint"/>
                        <mxPoint x="750" y="120" as="targetPoint"/>
                    </mxGeometry>
                </mxCell>
                <mxCell id="94" value="" style="endArrow=classic;html=1;fontFamily=Helvetica;fontColor=#000000;exitX=0;exitY=0.5;exitDx=0;exitDy=0;entryX=-0.001;entryY=0.44;entryDx=0;entryDy=0;entryPerimeter=0;" parent="1" source="70" target="90" edge="1">
                    <mxGeometry width="50" height="50" relative="1" as="geometry">
                        <mxPoint x="820" y="300" as="sourcePoint"/>
                        <mxPoint x="950" y="240" as="targetPoint"/>
                    </mxGeometry>
                </mxCell>
                <mxCell id="95" value="" style="endArrow=none;dashed=1;html=1;fontFamily=Helvetica;fontColor=#000000;dashPattern=1 2;entryX=1;entryY=0.5;entryDx=0;entryDy=0;edgeStyle=orthogonalEdgeStyle;" parent="1" target="96" edge="1">
                    <mxGeometry width="50" height="50" relative="1" as="geometry">
                        <mxPoint x="680" y="240" as="sourcePoint"/>
                        <mxPoint x="1020" y="240" as="targetPoint"/>
                        <Array as="points">
                            <mxPoint x="640" y="240"/>
                            <mxPoint x="640" y="750"/>
                        </Array>
                    </mxGeometry>
                </mxCell>
                <mxCell id="96" value="" style="shape=step;perimeter=stepPerimeter;whiteSpace=wrap;html=1;fixedSize=1;labelBackgroundColor=none;fontFamily=Helvetica;fontColor=#000000;strokeColor=#000000;strokeWidth=1;flipH=1;" parent="1" vertex="1">
                    <mxGeometry x="380" y="710" width="220" height="80" as="geometry"/>
                </mxCell>
                <mxCell id="97" value="Patch" style="rounded=0;whiteSpace=wrap;html=1;labelBackgroundColor=none;fontFamily=Helvetica;strokeWidth=1;" parent="1" vertex="1">
                    <mxGeometry x="410" y="720" width="80" height="60" as="geometry"/>
                </mxCell>
                <mxCell id="98" value="Reverse Patch&lt;br&gt;(Server)" style="rounded=0;whiteSpace=wrap;html=1;labelBackgroundColor=none;fontFamily=Helvetica;strokeWidth=1;strokeColor=#000000;fontColor=#000000;" parent="1" vertex="1">
                    <mxGeometry x="490" y="720" width="80" height="60" as="geometry"/>
                </mxCell>
                <mxCell id="22" value="" style="rounded=1;whiteSpace=wrap;html=1;fontFamily=Source Code Pro;strokeWidth=3;arcSize=50;" parent="1" vertex="1">
                    <mxGeometry x="141" y="130" width="99" height="20" as="geometry"/>
                </mxCell>
                <mxCell id="20" value="1" style="ellipse;whiteSpace=wrap;html=1;aspect=fixed;fontFamily=Source Code Pro;strokeWidth=3;" parent="1" vertex="1">
                    <mxGeometry x="141" y="130" width="20" height="20" as="geometry"/>
                </mxCell>
                <mxCell id="23" value="User Input" style="text;html=1;strokeColor=none;fillColor=none;align=center;verticalAlign=middle;whiteSpace=wrap;rounded=0;fontFamily=Helvetica;" parent="1" vertex="1">
                    <mxGeometry x="160" y="130" width="80" height="20" as="geometry"/>
                </mxCell>
                <mxCell id="99" value="Patch" style="rounded=0;whiteSpace=wrap;html=1;labelBackgroundColor=none;fontFamily=Helvetica;strokeWidth=1;" parent="1" vertex="1">
                    <mxGeometry x="150" y="190" width="80" height="30" as="geometry"/>
                </mxCell>
                <mxCell id="100" value="" style="endArrow=classic;html=1;fontFamily=Helvetica;fontColor=#000000;exitX=0.5;exitY=1;exitDx=0;exitDy=0;edgeStyle=orthogonalEdgeStyle;" parent="1" source="22" target="99" edge="1">
                    <mxGeometry width="50" height="50" relative="1" as="geometry">
                        <mxPoint x="170" y="160" as="sourcePoint"/>
                        <mxPoint x="310" y="140" as="targetPoint"/>
                    </mxGeometry>
                </mxCell>
                <mxCell id="102" value="" style="rounded=1;whiteSpace=wrap;html=1;fontFamily=Source Code Pro;strokeWidth=3;arcSize=50;" parent="1" vertex="1">
                    <mxGeometry x="130" y="240" width="160" height="20" as="geometry"/>
                </mxCell>
                <mxCell id="103" value="2" style="ellipse;whiteSpace=wrap;html=1;aspect=fixed;fontFamily=Source Code Pro;strokeWidth=3;" parent="1" vertex="1">
                    <mxGeometry x="130" y="240" width="20" height="20" as="geometry"/>
                </mxCell>
                <mxCell id="104" value="Calculate Reverse Patch" style="text;html=1;strokeColor=none;fillColor=none;align=center;verticalAlign=middle;whiteSpace=wrap;rounded=0;fontFamily=Helvetica;" parent="1" vertex="1">
                    <mxGeometry x="150" y="240" width="140" height="20" as="geometry"/>
                </mxCell>
                <mxCell id="105" value="" style="endArrow=classic;html=1;fontFamily=Helvetica;fontColor=#000000;exitX=0.5;exitY=1;exitDx=0;exitDy=0;" parent="1" source="99" edge="1">
                    <mxGeometry width="50" height="50" relative="1" as="geometry">
                        <mxPoint x="220.5" y="180" as="sourcePoint"/>
                        <mxPoint x="190" y="240" as="targetPoint"/>
                    </mxGeometry>
                </mxCell>
                <mxCell id="106" value="Patch" style="rounded=0;whiteSpace=wrap;html=1;labelBackgroundColor=none;fontFamily=Helvetica;strokeWidth=1;" parent="1" vertex="1">
                    <mxGeometry x="130.5" y="290" width="80" height="60" as="geometry"/>
                </mxCell>
                <mxCell id="107" value="Reverse Patch&lt;br&gt;(Client)" style="rounded=0;whiteSpace=wrap;html=1;labelBackgroundColor=none;fontFamily=Helvetica;strokeWidth=1;strokeColor=#666666;fontColor=#666666;" parent="1" vertex="1">
                    <mxGeometry x="210.5" y="290" width="80" height="60" as="geometry"/>
                </mxCell>
                <mxCell id="108" value="Command Stack" style="rounded=0;whiteSpace=wrap;html=1;labelBackgroundColor=none;fontFamily=Helvetica;fontColor=#000000;strokeColor=#000000;strokeWidth=1;fontStyle=1" parent="1" vertex="1">
                    <mxGeometry x="40" y="420" width="140" height="20" as="geometry"/>
                </mxCell>
                <mxCell id="109" value="Patch 1" style="rounded=0;whiteSpace=wrap;html=1;labelBackgroundColor=none;fontFamily=Helvetica;fontColor=#000000;strokeColor=#000000;strokeWidth=1;" parent="1" vertex="1">
                    <mxGeometry x="40" y="440" width="70" height="20" as="geometry"/>
                </mxCell>
                <mxCell id="110" value="Patch 2" style="rounded=0;whiteSpace=wrap;html=1;labelBackgroundColor=none;fontFamily=Helvetica;fontColor=#000000;strokeColor=#000000;strokeWidth=1;" parent="1" vertex="1">
                    <mxGeometry x="40" y="460" width="70" height="20" as="geometry"/>
                </mxCell>
                <mxCell id="111" value="Patch 3" style="rounded=0;whiteSpace=wrap;html=1;labelBackgroundColor=none;fontFamily=Helvetica;fontColor=#000000;strokeColor=#000000;strokeWidth=1;" parent="1" vertex="1">
                    <mxGeometry x="40" y="480" width="70" height="20" as="geometry"/>
                </mxCell>
                <mxCell id="113" value="" style="endArrow=classic;html=1;fontFamily=Helvetica;fontColor=#000000;entryX=0.5;entryY=0;entryDx=0;entryDy=0;exitX=0.5;exitY=1;exitDx=0;exitDy=0;" parent="1" source="102" target="112" edge="1">
                    <mxGeometry width="50" height="50" relative="1" as="geometry">
                        <mxPoint x="190" y="270" as="sourcePoint"/>
                        <mxPoint x="220" y="250" as="targetPoint"/>
                    </mxGeometry>
                </mxCell>
                <mxCell id="114" value="Reverse 1" style="rounded=0;whiteSpace=wrap;html=1;labelBackgroundColor=none;fontFamily=Helvetica;fontColor=#000000;strokeColor=#000000;strokeWidth=1;" parent="1" vertex="1">
                    <mxGeometry x="110" y="440" width="70" height="20" as="geometry"/>
                </mxCell>
                <mxCell id="115" value="Reverse 2" style="rounded=0;whiteSpace=wrap;html=1;labelBackgroundColor=none;fontFamily=Helvetica;fontColor=#000000;strokeColor=#000000;strokeWidth=1;" parent="1" vertex="1">
                    <mxGeometry x="110" y="460" width="70" height="20" as="geometry"/>
                </mxCell>
                <mxCell id="116" value="Reverse 3" style="rounded=0;whiteSpace=wrap;html=1;labelBackgroundColor=none;fontFamily=Helvetica;fontColor=#000000;strokeColor=#000000;strokeWidth=1;" parent="1" vertex="1">
                    <mxGeometry x="110" y="480" width="70" height="20" as="geometry"/>
                </mxCell>
                <mxCell id="117" value="" style="endArrow=classic;html=1;fontFamily=Helvetica;fontColor=#000000;exitX=1;exitY=0.5;exitDx=0;exitDy=0;edgeStyle=orthogonalEdgeStyle;entryX=0.75;entryY=0;entryDx=0;entryDy=0;" parent="1" source="5" target="104" edge="1">
                    <mxGeometry width="50" height="50" relative="1" as="geometry">
                        <mxPoint x="180.5" y="160" as="sourcePoint"/>
                        <mxPoint x="320" y="200" as="targetPoint"/>
                    </mxGeometry>
                </mxCell>
                <mxCell id="118" value="&lt;span style=&quot;font-size: 11px ; text-align: left ; background-color: rgb(255 , 255 , 255)&quot;&gt;/api/ws/project/72/&amp;lt;client-uuid&amp;gt;/private&lt;/span&gt;" style="rounded=0;whiteSpace=wrap;html=1;fontColor=default;fontFamily=Source Code Pro;" parent="1" vertex="1">
                    <mxGeometry x="60" y="740" width="280" height="20" as="geometry"/>
                </mxCell>
                <mxCell id="119" value="" style="endArrow=none;dashed=1;html=1;fontFamily=Helvetica;fontColor=#000000;dashPattern=1 2;exitX=0;exitY=0.5;exitDx=0;exitDy=0;entryX=1;entryY=0.5;entryDx=0;entryDy=0;" parent="1" source="96" target="118" edge="1">
                    <mxGeometry width="50" height="50" relative="1" as="geometry">
                        <mxPoint x="410" y="740" as="sourcePoint"/>
                        <mxPoint x="370" y="780" as="targetPoint"/>
                    </mxGeometry>
                </mxCell>
                <mxCell id="120" value="" style="endArrow=classic;html=1;fontFamily=Source Code Pro;dashed=1;edgeStyle=orthogonalEdgeStyle;entryX=0;entryY=0.5;entryDx=0;entryDy=0;" parent="1" target="26" edge="1">
                    <mxGeometry width="50" height="50" relative="1" as="geometry">
                        <mxPoint x="340" y="320" as="sourcePoint"/>
                        <mxPoint x="690" y="110" as="targetPoint"/>
                        <Array as="points">
                            <mxPoint x="380" y="320"/>
                            <mxPoint x="380" y="100"/>
                        </Array>
                    </mxGeometry>
                </mxCell>
                <mxCell id="121" value="" style="endArrow=classic;html=1;fontFamily=Helvetica;fontColor=#000000;exitX=1;exitY=0.5;exitDx=0;exitDy=0;" parent="1" source="112" edge="1">
                    <mxGeometry width="50" height="50" relative="1" as="geometry">
                        <mxPoint x="220" y="270" as="sourcePoint"/>
                        <mxPoint x="340" y="320" as="targetPoint"/>
                    </mxGeometry>
                </mxCell>
                <mxCell id="46" value="" style="rounded=1;whiteSpace=wrap;html=1;fontFamily=Source Code Pro;strokeWidth=3;arcSize=50;" parent="1" vertex="1">
                    <mxGeometry x="430" y="10" width="160" height="20" as="geometry"/>
                </mxCell>
                <mxCell id="47" value="3" style="ellipse;whiteSpace=wrap;html=1;aspect=fixed;fontFamily=Source Code Pro;strokeWidth=3;" parent="1" vertex="1">
                    <mxGeometry x="430" y="10" width="20" height="20" as="geometry"/>
                </mxCell>
                <mxCell id="48" value="Submit Patch via HTTP" style="text;html=1;strokeColor=none;fillColor=none;align=center;verticalAlign=middle;whiteSpace=wrap;rounded=0;fontFamily=Helvetica;" parent="1" vertex="1">
                    <mxGeometry x="450" y="10" width="140" height="20" as="geometry"/>
                </mxCell>
                <mxCell id="122" value="History" style="rounded=0;whiteSpace=wrap;html=1;labelBackgroundColor=none;fontFamily=Helvetica;fontColor=#000000;strokeColor=#000000;strokeWidth=1;fontStyle=1" vertex="1" parent="1">
                    <mxGeometry x="100" y="540" width="140" height="20" as="geometry"/>
                </mxCell>
                <mxCell id="123" value="Patch 1" style="rounded=0;whiteSpace=wrap;html=1;labelBackgroundColor=none;fontFamily=Helvetica;fontColor=#000000;strokeColor=#000000;strokeWidth=1;" vertex="1" parent="1">
                    <mxGeometry x="100" y="560" width="70" height="20" as="geometry"/>
                </mxCell>
                <mxCell id="124" value="Patch 2" style="rounded=0;whiteSpace=wrap;html=1;labelBackgroundColor=none;fontFamily=Helvetica;fontColor=#000000;strokeColor=#000000;strokeWidth=1;" vertex="1" parent="1">
                    <mxGeometry x="100" y="580" width="70" height="20" as="geometry"/>
                </mxCell>
                <mxCell id="125" value="Patch 3" style="rounded=0;whiteSpace=wrap;html=1;labelBackgroundColor=none;fontFamily=Helvetica;fontColor=#000000;strokeColor=#000000;strokeWidth=1;" vertex="1" parent="1">
                    <mxGeometry x="100" y="600" width="70" height="20" as="geometry"/>
                </mxCell>
                <mxCell id="126" value="Reverse 1" style="rounded=0;whiteSpace=wrap;html=1;labelBackgroundColor=none;fontFamily=Helvetica;fontColor=#000000;strokeColor=#000000;strokeWidth=1;" vertex="1" parent="1">
                    <mxGeometry x="170" y="560" width="70" height="20" as="geometry"/>
                </mxCell>
                <mxCell id="127" value="Reverse 2" style="rounded=0;whiteSpace=wrap;html=1;labelBackgroundColor=none;fontFamily=Helvetica;fontColor=#000000;strokeColor=#000000;strokeWidth=1;" vertex="1" parent="1">
                    <mxGeometry x="170" y="580" width="70" height="20" as="geometry"/>
                </mxCell>
                <mxCell id="128" value="Reverse 3" style="rounded=0;whiteSpace=wrap;html=1;labelBackgroundColor=none;fontFamily=Helvetica;fontColor=#000000;strokeColor=#000000;strokeWidth=1;" vertex="1" parent="1">
                    <mxGeometry x="170" y="600" width="70" height="20" as="geometry"/>
                </mxCell>
                <mxCell id="129" value="" style="rounded=0;whiteSpace=wrap;html=1;fontFamily=Source Code Pro;strokeWidth=1;align=left;verticalAlign=top;spacingTop=0;" vertex="1" parent="1">
                    <mxGeometry x="420" y="350" width="180" height="100" as="geometry"/>
                </mxCell>
                <mxCell id="130" value="&lt;span style=&quot;color: rgb(0 , 0 , 0) ; font-family: &amp;#34;source code pro&amp;#34; ; font-size: 12px ; font-style: normal ; font-weight: 400 ; letter-spacing: normal ; text-align: left ; text-indent: 0px ; text-transform: none ; word-spacing: 0px ; display: inline ; float: none&quot;&gt;HTTP Response&lt;/span&gt;" style="text;html=1;align=center;verticalAlign=middle;whiteSpace=wrap;rounded=0;fontFamily=Source Code Pro;labelBackgroundColor=none;strokeColor=default;" vertex="1" parent="1">
                    <mxGeometry x="420" y="350" width="180" height="20" as="geometry"/>
                </mxCell>
                <mxCell id="131" value="Patch" style="rounded=0;whiteSpace=wrap;html=1;labelBackgroundColor=none;fontFamily=Helvetica;strokeWidth=1;" vertex="1" parent="1">
                    <mxGeometry x="430" y="380" width="80" height="60" as="geometry"/>
                </mxCell>
                <mxCell id="132" value="Reverse Patch&lt;br&gt;(Server)" style="rounded=0;whiteSpace=wrap;html=1;labelBackgroundColor=none;fontFamily=Helvetica;strokeWidth=1;strokeColor=#000000;fontColor=#000000;" vertex="1" parent="1">
                    <mxGeometry x="510" y="380" width="80" height="60" as="geometry"/>
                </mxCell>
                <mxCell id="133" value="" style="endArrow=classic;html=1;fontFamily=Source Code Pro;dashed=1;exitX=0.001;exitY=0.44;exitDx=0;exitDy=0;edgeStyle=orthogonalEdgeStyle;entryX=1;entryY=0.5;entryDx=0;entryDy=0;exitPerimeter=0;" edge="1" parent="1" source="90" target="129">
                    <mxGeometry width="50" height="50" relative="1" as="geometry">
                        <mxPoint x="610" y="110" as="sourcePoint"/>
                        <mxPoint x="690" y="110" as="targetPoint"/>
                        <Array as="points">
                            <mxPoint x="640" y="240"/>
                            <mxPoint x="640" y="400"/>
                        </Array>
                    </mxGeometry>
                </mxCell>
                <mxCell id="134" value="" style="rounded=1;whiteSpace=wrap;html=1;fontFamily=Source Code Pro;strokeWidth=3;arcSize=50;" vertex="1" parent="1">
                    <mxGeometry x="460" y="315" width="100" height="20" as="geometry"/>
                </mxCell>
                <mxCell id="135" value="8" style="ellipse;whiteSpace=wrap;html=1;aspect=fixed;fontFamily=Source Code Pro;strokeWidth=3;" vertex="1" parent="1">
                    <mxGeometry x="460" y="315" width="20" height="20" as="geometry"/>
                </mxCell>
                <mxCell id="136" value="Return Patch" style="text;html=1;strokeColor=none;fillColor=none;align=center;verticalAlign=middle;whiteSpace=wrap;rounded=0;fontFamily=Helvetica;" vertex="1" parent="1">
                    <mxGeometry x="480" y="315" width="80" height="20" as="geometry"/>
                </mxCell>
                <mxCell id="137" value="" style="endArrow=classic;html=1;fontFamily=Source Code Pro;dashed=1;exitX=0;exitY=0.5;exitDx=0;exitDy=0;edgeStyle=orthogonalEdgeStyle;" edge="1" parent="1" source="129">
                    <mxGeometry width="50" height="50" relative="1" as="geometry">
                        <mxPoint x="690" y="250.00000000000023" as="sourcePoint"/>
                        <mxPoint x="340" y="400" as="targetPoint"/>
                        <Array as="points">
                            <mxPoint x="340" y="400"/>
                        </Array>
                    </mxGeometry>
                </mxCell>
                <mxCell id="138" value="" style="endArrow=classic;html=1;fontFamily=Helvetica;fontColor=#000000;entryX=0;entryY=0.5;entryDx=0;entryDy=0;edgeStyle=orthogonalEdgeStyle;" edge="1" parent="1" target="5">
                    <mxGeometry width="50" height="50" relative="1" as="geometry">
                        <mxPoint x="340" y="400" as="sourcePoint"/>
                        <mxPoint x="350" y="330" as="targetPoint"/>
                        <Array as="points">
                            <mxPoint x="340" y="400"/>
                            <mxPoint x="40" y="400"/>
                            <mxPoint x="40" y="100"/>
                        </Array>
                    </mxGeometry>
                </mxCell>
                <mxCell id="139" value="" style="rounded=1;whiteSpace=wrap;html=1;fontFamily=Source Code Pro;strokeWidth=3;arcSize=50;" vertex="1" parent="1">
                    <mxGeometry x="160" y="370" width="100" height="20" as="geometry"/>
                </mxCell>
                <mxCell id="140" value="9" style="ellipse;whiteSpace=wrap;html=1;aspect=fixed;fontFamily=Source Code Pro;strokeWidth=3;" vertex="1" parent="1">
                    <mxGeometry x="160" y="370" width="20" height="20" as="geometry"/>
                </mxCell>
                <mxCell id="141" value="Apply Patch" style="text;html=1;strokeColor=none;fillColor=none;align=center;verticalAlign=middle;whiteSpace=wrap;rounded=0;fontFamily=Helvetica;" vertex="1" parent="1">
                    <mxGeometry x="180" y="370" width="80" height="20" as="geometry"/>
                </mxCell>
                <mxCell id="142" value="" style="endArrow=classic;html=1;fontFamily=Helvetica;fontColor=#000000;entryX=1;entryY=1;entryDx=0;entryDy=0;edgeStyle=orthogonalEdgeStyle;" edge="1" parent="1" target="114">
                    <mxGeometry width="50" height="50" relative="1" as="geometry">
                        <mxPoint x="300" y="400" as="sourcePoint"/>
                        <mxPoint x="350" y="310" as="targetPoint"/>
                        <Array as="points">
                            <mxPoint x="300" y="460"/>
                        </Array>
                    </mxGeometry>
                </mxCell>
                <mxCell id="143" value="" style="rounded=1;whiteSpace=wrap;html=1;fontFamily=Source Code Pro;strokeWidth=3;arcSize=50;" vertex="1" parent="1">
                    <mxGeometry x="190" y="430" width="100" height="20" as="geometry"/>
                </mxCell>
                <mxCell id="144" value="10" style="ellipse;whiteSpace=wrap;html=1;aspect=fixed;fontFamily=Source Code Pro;strokeWidth=3;" vertex="1" parent="1">
                    <mxGeometry x="190" y="430" width="20" height="20" as="geometry"/>
                </mxCell>
                <mxCell id="145" value="Add Patch" style="text;html=1;strokeColor=none;fillColor=none;align=center;verticalAlign=middle;whiteSpace=wrap;rounded=0;fontFamily=Helvetica;" vertex="1" parent="1">
                    <mxGeometry x="210" y="430" width="80" height="20" as="geometry"/>
                </mxCell>
                <mxCell id="146" value="" style="endArrow=none;dashed=1;html=1;fontFamily=Helvetica;fontColor=#000000;dashPattern=1 2;entryX=0.393;entryY=0.02;entryDx=0;entryDy=0;entryPerimeter=0;exitX=0.5;exitY=1;exitDx=0;exitDy=0;" edge="1" parent="1" source="151" target="118">
                    <mxGeometry width="50" height="50" relative="1" as="geometry">
                        <mxPoint x="200" y="700" as="sourcePoint"/>
                        <mxPoint x="350" y="760" as="targetPoint"/>
                    </mxGeometry>
                </mxCell>
                <mxCell id="147" value="" style="endArrow=classic;html=1;fontFamily=Helvetica;fontColor=#000000;edgeStyle=orthogonalEdgeStyle;entryX=0;entryY=1;entryDx=0;entryDy=0;exitX=0.5;exitY=1;exitDx=0;exitDy=0;" edge="1" parent="1" source="151" target="128">
                    <mxGeometry width="50" height="50" relative="1" as="geometry">
                        <mxPoint x="200" y="700" as="sourcePoint"/>
                        <mxPoint x="170" y="640" as="targetPoint"/>
                        <Array as="points">
                            <mxPoint x="170" y="680"/>
                            <mxPoint x="170" y="680"/>
                        </Array>
                    </mxGeometry>
                </mxCell>
                <mxCell id="148" value="" style="rounded=1;whiteSpace=wrap;html=1;fontFamily=Source Code Pro;strokeWidth=3;arcSize=50;" vertex="1" parent="1">
                    <mxGeometry x="180" y="630" width="100" height="20" as="geometry"/>
                </mxCell>
                <mxCell id="149" value="7" style="ellipse;whiteSpace=wrap;html=1;aspect=fixed;fontFamily=Source Code Pro;strokeWidth=3;" vertex="1" parent="1">
                    <mxGeometry x="180" y="630" width="20" height="20" as="geometry"/>
                </mxCell>
                <mxCell id="150" value="Add Patch" style="text;html=1;strokeColor=none;fillColor=none;align=center;verticalAlign=middle;whiteSpace=wrap;rounded=0;fontFamily=Helvetica;" vertex="1" parent="1">
                    <mxGeometry x="200" y="630" width="80" height="20" as="geometry"/>
                </mxCell>
            </root>
        </mxGraphModel>
    </diagram>
</mxfile>
